<svg xmlns="http://www.w3.org/2000/svg" viewBox="0 0 44 44" style="enable-background:new 0 0 44 44" xml:space="preserve"><linearGradient id="a" gradientUnits="userSpaceOnUse" x1="1" y1="22" x2="43" y2="22"><stop offset="0" style="stop-color:#780096"/><stop offset="1" style="stop-color:#ff0082"/></linearGradient><circle cx="22" cy="22" r="21" style="fill:url(#a)"/><path d="M17.7 28.8H14V18.3h3.7v10.5zm-2-12.4c-1.1 0-1.9-.8-1.9-1.8s.8-1.8 2-1.8c1.1 0 1.9.8 1.9 1.8.1 1-.7 1.8-2 1.8zm15.2 12.4h-3.6v-5.7c0-1.6-1-1.9-1.3-1.9-.4 0-1.6.2-1.6 1.9v5.7h-3.7V18.3h3.7v1.5c.5-.9 1.4-1.5 3.2-1.5 1.8 0 3.2 1.5 3.2 4.8v5.7z" style="fill:#fff"/></svg>