<svg width="120" height="51" fill="none" xmlns="http://www.w3.org/2000/svg"><path d="M69 28h19v4H69v-4Z" fill="#E51E5C"/><path d="M86 21h3a2 2 0 0 1 2 2v5a2 2 0 0 1-2 2h-3v-9ZM86 30h3a2 2 0 0 1 2 2v9.75a.25.25 0 0 1-.25.25h-4.5a.25.25 0 0 1-.25-.25V30ZM67 22a1 1 0 0 1 1-1h4v20.75a.25.25 0 0 1-.25.25h-4.5a.25.25 0 0 1-.25-.25V22Z" fill="#E51E5C"/><path d="M67 22a1 1 0 0 1 1-1h21a2 2 0 0 1 2 2v2H67v-3Z" fill="#E51E5C"/><path d="M35.817 26.689 20.933 15.845a2 2 0 0 0-2.333-.016L3.27 26.672a2 2 0 0 0-.025 3.248l15.33 11.204a2 2 0 0 0 2.382-.016l14.885-11.205a2 2 0 0 0-.025-3.214Z" stroke="#3E2E87" stroke-width="4"/><path d="M35.922 14.2 20.96 2.898a2 2 0 0 0-2.389-.016L3.164 14.184a2 2 0 0 0-.026 3.207l15.409 11.68a2 2 0 0 0 2.439-.018l14.962-11.68a2 2 0 0 0-.025-3.172Z" stroke="#E51E5C" stroke-width="4"/><path d="M95 40a2 2 0 0 1 2-2h18a2 2 0 1 1 0 4H97a2 2 0 0 1-2-2Z" fill="#E51E5C"/><path d="M112 34.25a.25.25 0 0 1 .25-.25h4.5a.25.25 0 0 1 .25.25v5.25a2.5 2.5 0 1 1-5 0v-5.25ZM93 23.5a2.5 2.5 0 0 1 2.5-2.5H98v21h-2.5a2.5 2.5 0 0 1-2.5-2.5v-16Z" fill="#E51E5C"/><path d="M96 23a2 2 0 0 1 2-2h16.5a2.5 2.5 0 0 1 2.5 2.5V25H98a2 2 0 0 1-2-2Z" fill="#E51E5C"/><path d="M112 23.5a2.5 2.5 0 1 1 5 0v3.25a.25.25 0 0 1-.25.25h-4.5a.25.25 0 0 1-.25-.25V23.5ZM42 23a2 2 0 0 1 2-2h19a2 2 0 0 1 2 2v1a1 1 0 0 1-1 1H42v-2ZM43 28h21v4H43v-4Z" fill="#E51E5C"/><path d="M42 23h5v18.75a.25.25 0 0 1-.25.25h-4.5a.25.25 0 0 1-.25-.25V23ZM60 23h5v18.75a.25.25 0 0 1-.25.25h-4.5a.25.25 0 0 1-.25-.25V23Z" fill="#E51E5C"/><path d="M3.985 48.18c.2.063.357.17.47.32.113.147.17.328.17.545 0 .307-.12.543-.36.71-.237.163-.583.245-1.04.245h-1.81v-3.5h1.71c.427 0 .753.082.98.245.23.163.345.385.345.665a.84.84 0 0 1-.125.455.84.84 0 0 1-.34.315ZM2.22 47.11v.825h.805c.2 0 .352-.035.455-.105a.35.35 0 0 0 .155-.31c0-.137-.052-.238-.155-.305-.103-.07-.255-.105-.455-.105H2.22Zm.945 2.28c.213 0 .373-.035.48-.105.11-.07.165-.178.165-.325 0-.29-.215-.435-.645-.435H2.22v.865h.945Zm3.748.67c-.356 0-.68-.077-.97-.23a1.783 1.783 0 0 1-.68-.645 1.804 1.804 0 0 1-.245-.935 1.734 1.734 0 0 1 .925-1.575c.29-.157.615-.235.975-.235.304 0 .577.053.82.16.247.107.454.26.62.46l-.52.48a1.118 1.118 0 0 0-.88-.41c-.216 0-.41.048-.58.145-.17.093-.303.225-.4.395-.093.17-.14.363-.14.58 0 .217.047.41.14.58.097.17.23.303.4.4.17.093.364.14.58.14.35 0 .644-.138.88-.415l.52.48a1.621 1.621 0 0 1-.62.465c-.246.107-.521.16-.825.16Zm3.507-3.56c.31 0 .579.052.805.155.23.103.407.25.53.44.124.19.185.415.185.675 0 .257-.061.482-.185.675-.123.19-.3.337-.53.44-.226.1-.495.15-.805.15h-.705V50h-.81v-3.5h1.515Zm-.045 1.875c.244 0 .429-.052.555-.155a.556.556 0 0 0 .19-.45c0-.197-.063-.347-.19-.45-.126-.107-.311-.16-.555-.16h-.66v1.215h.66ZM21.72 49.25h-1.625l-.31.75h-.83l1.56-3.5h.8L22.88 50h-.85l-.31-.75Zm-.255-.615-.555-1.34-.555 1.34h1.11Zm3.26 1.425c-.5 0-.89-.138-1.17-.415-.277-.277-.415-.672-.415-1.185V46.5h.81v1.93c0 .627.26.94.78.94.253 0 .447-.075.58-.225.133-.153.2-.392.2-.715V46.5h.8v1.96c0 .513-.14.908-.42 1.185-.277.277-.665.415-1.165.415Zm3.052-2.9h-1.12v-.66h3.05v.66h-1.12V50h-.81v-2.84Zm4.012 2.9c-.364 0-.692-.078-.985-.235a1.773 1.773 0 0 1-.685-.645 1.795 1.795 0 0 1-.245-.93c0-.343.081-.652.245-.925.166-.277.395-.493.685-.65.293-.157.621-.235.985-.235.363 0 .69.078.98.235a1.761 1.761 0 0 1 .935 1.575c0 .343-.084.653-.25.93a1.773 1.773 0 0 1-.685.645c-.29.157-.617.235-.98.235Zm0-.69c.206 0 .393-.047.56-.14.166-.097.296-.23.39-.4.096-.17.145-.363.145-.58 0-.217-.049-.41-.145-.58a.988.988 0 0 0-.39-.395 1.095 1.095 0 0 0-.56-.145c-.207 0-.394.048-.56.145a1.022 1.022 0 0 0-.395.395c-.094.17-.14.363-.14.58 0 .217.046.41.14.58.096.17.228.303.395.4.166.093.353.14.56.14Zm5.709.63-.005-2.1-1.03 1.73h-.366l-1.025-1.685V50h-.76v-3.5h.67l1.31 2.175 1.29-2.175h.666l.01 3.5h-.76Zm3.895-.75h-1.625l-.31.75h-.83l1.56-3.5h.8l1.565 3.5h-.85l-.31-.75Zm-.255-.615-.555-1.34-.555 1.34h1.11Zm2.327-1.475h-1.12v-.66h3.05v.66h-1.12V50h-.81v-2.84Zm2.366-.66h.81V50h-.81v-3.5Zm3.336 3.56c-.364 0-.692-.078-.985-.235a1.773 1.773 0 0 1-.685-.645 1.795 1.795 0 0 1-.245-.93c0-.343.081-.652.245-.925.166-.277.395-.493.685-.65.293-.157.621-.235.985-.235.363 0 .69.078.98.235a1.76 1.76 0 0 1 .935 1.575c0 .343-.084.653-.25.93a1.773 1.773 0 0 1-.685.645c-.29.157-.617.235-.98.235Zm0-.69c.206 0 .393-.047.56-.14.166-.097.296-.23.39-.4.096-.17.145-.363.145-.58 0-.217-.049-.41-.145-.58a.988.988 0 0 0-.39-.395 1.095 1.095 0 0 0-.56-.145c-.207 0-.394.048-.56.145a1.023 1.023 0 0 0-.395.395c-.094.17-.14.363-.14.58 0 .217.046.41.14.58.096.17.228.303.395.4.166.093.353.14.56.14ZM54.9 46.5V50h-.665l-1.745-2.125V50h-.8v-3.5h.67l1.74 2.125V46.5h.8ZM64.645 50l-.675-.975h-.745V50h-.81v-3.5h1.515c.31 0 .578.052.805.155.23.103.407.25.53.44.123.19.185.415.185.675 0 .26-.063.485-.19.675-.123.187-.3.33-.53.43L65.515 50h-.87Zm-.015-2.23c0-.197-.063-.347-.19-.45-.127-.107-.312-.16-.555-.16h-.66v1.22h.66c.243 0 .428-.053.555-.16a.556.556 0 0 0 .19-.45Zm4.172 1.58V50h-2.71v-3.5h2.645v.65h-1.84v.76h1.625v.63h-1.625v.81h1.905Zm2.16-2.85c.31 0 .578.052.804.155.23.103.407.25.53.44.124.19.185.415.185.675 0 .257-.061.482-.185.675-.123.19-.3.337-.53.44-.226.1-.495.15-.805.15h-.705V50h-.81v-3.5h1.515Zm-.046 1.875c.244 0 .429-.052.555-.155a.556.556 0 0 0 .19-.45c0-.197-.063-.347-.19-.45-.126-.107-.311-.16-.555-.16h-.66v1.215h.66Zm3.887 1.685c-.363 0-.691-.078-.985-.235a1.773 1.773 0 0 1-.685-.645 1.794 1.794 0 0 1-.245-.93c0-.343.082-.652.245-.925a1.76 1.76 0 0 1 .685-.65c.294-.157.622-.235.985-.235.364 0 .69.078.98.235a1.761 1.761 0 0 1 .935 1.575c0 .343-.083.653-.25.93a1.773 1.773 0 0 1-.685.645c-.29.157-.616.235-.98.235Zm0-.69c.207 0 .394-.047.56-.14.167-.097.297-.23.39-.4.097-.17.145-.363.145-.58 0-.217-.048-.41-.145-.58a.989.989 0 0 0-.39-.395 1.096 1.096 0 0 0-.56-.145c-.206 0-.393.048-.56.145a1.021 1.021 0 0 0-.395.395c-.093.17-.14.363-.14.58 0 .217.047.41.14.58.097.17.229.303.395.4.167.093.354.14.56.14Zm4.754.63-.675-.975h-.745V50h-.81v-3.5h1.515c.31 0 .578.052.805.155.23.103.407.25.53.44.123.19.185.415.185.675 0 .26-.063.485-.19.675-.123.187-.3.33-.53.43L80.427 50h-.87Zm-.015-2.23c0-.197-.063-.347-.19-.45-.127-.107-.312-.16-.555-.16h-.66v1.22h.66c.243 0 .428-.053.555-.16a.556.556 0 0 0 .19-.45Zm2.138-.61h-1.12v-.66h3.05v.66h-1.12V50h-.81v-2.84Zm3.491 2.9c-.276 0-.545-.037-.805-.11a1.92 1.92 0 0 1-.62-.295l.275-.61c.15.11.329.198.535.265.207.067.414.1.62.1.23 0 .4-.033.51-.1.11-.07.165-.162.165-.275a.25.25 0 0 0-.1-.205.683.683 0 0 0-.25-.135 4.71 4.71 0 0 0-.41-.11 5.706 5.706 0 0 1-.655-.19 1.083 1.083 0 0 1-.44-.305c-.12-.14-.18-.327-.18-.56 0-.203.055-.387.165-.55.11-.167.275-.298.495-.395.224-.097.495-.145.815-.145.224 0 .442.027.655.08.214.053.4.13.56.23l-.25.615a1.952 1.952 0 0 0-.97-.275c-.226 0-.395.037-.505.11a.337.337 0 0 0-.16.29c0 .12.062.21.185.27.127.057.319.113.575.17a5.7 5.7 0 0 1 .655.19c.17.063.315.163.435.3.124.137.185.322.185.555 0 .2-.056.383-.17.55-.11.163-.276.293-.5.39a2.048 2.048 0 0 1-.815.145ZM95.09 50.06c-.357 0-.68-.077-.97-.23a1.783 1.783 0 0 1-.68-.645 1.805 1.805 0 0 1-.245-.935 1.734 1.734 0 0 1 .925-1.575c.29-.157.615-.235.975-.235.303 0 .577.053.82.16.247.107.453.26.62.46l-.52.48a1.118 1.118 0 0 0-.88-.41c-.217 0-.41.048-.58.145-.17.093-.303.225-.4.395-.093.17-.14.363-.14.58 0 .217.047.41.14.58.097.17.23.303.4.4.17.093.363.14.58.14.35 0 .643-.138.88-.415l.52.48a1.622 1.622 0 0 1-.62.465c-.247.107-.522.16-.825.16Zm4.229-.81h-1.625l-.31.75h-.83l1.56-3.5h.8l1.565 3.5h-.85l-.31-.75Zm-.255-.615-.555-1.34-.555 1.34h1.11Zm3.293-2.135c.31 0 .578.052.805.155.23.103.406.25.53.44.123.19.185.415.185.675 0 .257-.062.482-.185.675-.124.19-.3.337-.53.44-.227.1-.495.15-.805.15h-.705V50h-.81v-3.5h1.515Zm-.045 1.875c.243 0 .428-.052.555-.155a.558.558 0 0 0 .19-.45c0-.197-.064-.347-.19-.45-.127-.107-.312-.16-.555-.16h-.66v1.215h.66Zm4.272.875h-1.625l-.31.75h-.83l1.56-3.5h.8l1.565 3.5h-.85l-.31-.75Zm-.255-.615-.555-1.34-.555 1.34h1.11Zm3.405 1.425c-.357 0-.68-.077-.97-.23a1.776 1.776 0 0 1-.68-.645 1.798 1.798 0 0 1-.245-.935c0-.347.081-.657.245-.93.166-.277.393-.492.68-.645.29-.157.615-.235.975-.235.303 0 .576.053.82.16.246.107.453.26.62.46l-.52.48a1.119 1.119 0 0 0-.88-.41c-.217 0-.41.048-.58.145-.17.093-.304.225-.4.395-.094.17-.14.363-.14.58 0 .217.046.41.14.58.096.17.23.303.4.4.17.093.363.14.58.14.35 0 .643-.138.88-.415l.52.48a1.63 1.63 0 0 1-.62.465 2.06 2.06 0 0 1-.825.16Zm1.992-3.56h.81V50h-.81v-3.5Zm2.365.66h-1.12v-.66h3.05v.66h-1.12V50h-.81v-2.84Zm3.983 1.6V50h-.81v-1.25l-1.355-2.25h.86l.935 1.555.935-1.555h.795l-1.36 2.26ZM58 48.06 59.06 47l1.062 1.06-1.061 1.062zM89 48.06 90.06 47l1.062 1.06-1.061 1.062zM15 48.06 16.06 47l1.062 1.06-1.061 1.062z" fill="#3E2E87"/></svg>