<svg version="1.1" id="Camada_1" xmlns="http://www.w3.org/2000/svg" x="0" y="0" viewBox="0 0 44 44" style="enable-background:new 0 0 44 44" xml:space="preserve"><style>.st1{fill:none;stroke:#fff;stroke-width:1.2898}</style><linearGradient id="SVGID_1_" gradientUnits="userSpaceOnUse" x1="1" y1="22" x2="43" y2="22"><stop offset="0" style="stop-color:#780096"/><stop offset="1" style="stop-color:#ff0082"/></linearGradient><circle cx="22" cy="22" r="21" style="fill:url(#SVGID_1_)"/><path class="st1" d="M18.5 22.7c0-1.9 1.5-3.4 3.4-3.4s3.4 1.5 3.4 3.4-1.5 3.4-3.4 3.4-3.4-1.6-3.4-3.4z"/><circle cx="26" cy="18.2" r=".8" style="fill:#fff"/><path class="st1" d="M27.6 29.5H16.4c-1.1 0-1.9-.9-1.9-1.9V16.4c0-1.1.9-1.9 1.9-1.9h11.1c1.1 0 1.9.9 1.9 1.9v11.1c.1 1.1-.8 2-1.8 2z"/></svg>