<svg xmlns="http://www.w3.org/2000/svg" viewBox="0 0 44 44" style="enable-background:new 0 0 44 44" xml:space="preserve"><linearGradient id="a" gradientUnits="userSpaceOnUse" x1="1" y1="22" x2="43" y2="22"><stop offset="0" style="stop-color:#780096"/><stop offset="1" style="stop-color:#ff0082"/></linearGradient><circle cx="22" cy="22" r="21" style="fill:url(#a)"/><path d="M22.8 20.8v-.6c-.1-1.5.8-2.8 2.2-3.3.5-.2 1.4-.2 2 0 .2.1.7.3 1 .5l.6.4.6-.2c.3-.1.8-.3 1-.4.2-.1.4-.2.4-.1 0 .2-.4.9-.8 1.2-.5.5-.3.6.6.2.6-.2.6-.2.5 0-.1.1-.4.5-.8.9-.6.6-.7.7-.7 1.2 0 .8-.4 2.5-.8 3.5-.7 1.8-2.3 3.6-3.8 4.5-2.2 1.3-5.1 1.6-7.5.9-.8-.3-2.2-.9-2.2-1 0 0 .4-.1.9-.1 1.1 0 2.2-.3 3.1-.9l.6-.4-.7-.2c-1-.3-1.9-1.1-2.1-1.9-.1-.2 0-.3.6-.3h.7l-.6-.3c-.7-.3-1.3-.9-1.6-1.5-.2-.4-.5-1.5-.4-1.5 0 0 .3 0 .5.1.8.3.9.2.4-.3-.9-.9-1.1-2.2-.7-3.4l.2-.6.8.8c1.5 1.5 3.4 2.4 5.4 2.7l.6.1z" style="fill-rule:evenodd;clip-rule:evenodd;fill:#fff"/></svg>